<svg xmlns="http://www.w3.org/2000/svg" width="35" height="40" viewBox="0 0 35 40">
  <path id="Tracé_10" data-name="Tracé 10" d="M7.56,10.615a.631.631,0,0,0,.117.01.624.624,0,0,0,.613-.508,9.387,9.387,0,0,1,6.085-7.059V10a.625.625,0,0,0,1.25,0V1.875a.626.626,0,0,1,.625-.625h2.5a.626.626,0,0,1,.625.625V10a.625.625,0,0,0,1.25,0V3.058a9.387,9.387,0,0,1,6.085,7.059.624.624,0,0,0,.613.508.62.62,0,0,0,.615-.742A10.642,10.642,0,0,0,20.6,1.732,1.864,1.864,0,0,0,18.75,0h-2.5A1.864,1.864,0,0,0,14.4,1.732a10.642,10.642,0,0,0-7.342,8.15A.627.627,0,0,0,7.56,10.615ZM6.875,13.75h21.25a.625.625,0,0,0,0-1.25H6.875a.625.625,0,0,0,0,1.25Zm19.768,2.5a.627.627,0,0,0-.609.511,8.7,8.7,0,0,1-17.068,0A.62.62,0,1,0,7.75,17a9.942,9.942,0,0,0,19.5,0,.624.624,0,0,0-.607-.753ZM24.583,27.5H10.417A10.417,10.417,0,0,0,0,37.917,2.084,2.084,0,0,0,2.083,40H32.917A2.084,2.084,0,0,0,35,37.917,10.417,10.417,0,0,0,24.583,27.5Zm8.334,11.25H2.083a.834.834,0,0,1-.833-.833,9.177,9.177,0,0,1,9.167-9.167H24.583a9.177,9.177,0,0,1,9.167,9.167A.834.834,0,0,1,32.917,38.75Z" fill="#6f882c"/>
</svg>
