<svg xmlns="http://www.w3.org/2000/svg" width="40" height="32" viewBox="0 0 40 32">
  <path id="Tracé_131" data-name="Tracé 131" d="M13,13.5a1.25,1.25,0,1,0,1.25,1.25A1.25,1.25,0,0,0,13,13.5ZM14.037,4H11.765A2.768,2.768,0,0,0,9,6.765a1,1,0,0,0,2,0A.765.765,0,0,1,11.765,6h2.273a.963.963,0,0,1,.417,1.831l-1.915.994A1,1,0,0,0,12,9.713V11a1,1,0,0,0,2,0v-.68l1.361-.707A2.963,2.963,0,0,0,14.037,4ZM36,8H28v2h8a2,2,0,0,1,2,2V24a2,2,0,0,1-2,2H32v3.1L26.985,26.26,26.527,26H20a2,2,0,0,1-2-2V22H16v2a4.008,4.008,0,0,0,4,4h6l6.8,3.852A.761.761,0,0,0,33.25,32a.745.745,0,0,0,.75-.75V28h2a4.008,4.008,0,0,0,4-4V12A4.008,4.008,0,0,0,36,8ZM26,16V4a4.008,4.008,0,0,0-4-4H4A4.008,4.008,0,0,0,0,4V16a4.008,4.008,0,0,0,4,4H6v3.25a.745.745,0,0,0,.75.75.761.761,0,0,0,.445-.148L14,20h8A4.008,4.008,0,0,0,26,16ZM13.473,18l-.458.26L8,21.1V18H4a2,2,0,0,1-2-2V4A2,2,0,0,1,4,2H22a2,2,0,0,1,2,2V16a2,2,0,0,1-2,2Z" fill="#6f882c"/>
</svg>
