<svg xmlns="http://www.w3.org/2000/svg" width="40" height="40" viewBox="0 0 40 40">
  <path id="Tracé_9" data-name="Tracé 9" d="M36.506,3.494A11.524,11.524,0,0,0,28.277,0c-3.646,0-7.65,1.7-11.462,5.517-6.142,6.132-4.765,4.756-6.7,6.689-4.726,4.716-5.5,11.776-4.97,16.493l.016-.016q.034.313.075.613a6.378,6.378,0,0,0,1.41,3.174L.183,38.933a.625.625,0,1,0,.884.884L7.53,33.354a6.364,6.364,0,0,0,3.186,1.424q.288.04.589.073l0,0A23.762,23.762,0,0,0,13.929,35c4.456,0,9.963-1.2,13.866-5.113,1.933-1.933.556-.557,6.689-6.7C41.556,16.112,41.376,8.377,36.506,3.494ZM6.476,29.124c-.026-.187-.049-.38-.071-.576l-.091-.792c-.34-4.642.713-10.7,4.686-14.666L13.1,11l4.6-4.6c3.37-3.37,7.027-5.151,10.578-5.151a10.25,10.25,0,0,1,7.345,3.127c3.586,3.6,4.055,8.405,1.58,13.123H23.384l3.933-3.933a.625.625,0,0,0-.884-.884L7.568,31.549A5.079,5.079,0,0,1,6.476,29.124ZM26.91,29c-4.121,4.13-9.9,4.746-12.981,4.746-.686,0-1.367-.03-2.029-.089l-.459-.05q-.284-.031-.554-.068a5.069,5.069,0,0,1-2.438-1.1l6.185-6.185H29.657L29,26.905ZM33.6,22.3,30.905,25H15.884l6.25-6.25H36.423A20.718,20.718,0,0,1,33.6,22.3Z" transform="translate(0)" fill="#6f882c"/>
</svg>
