<svg xmlns="http://www.w3.org/2000/svg" width="32.857" height="40" viewBox="0 0 32.857 40">
  <path id="Tracé_8" data-name="Tracé 8" d="M49.429,44.3V38.429a.714.714,0,0,0-1.429,0V44.3a20.779,20.779,0,0,0,4.439,12.807,19.354,19.354,0,0,1,4.132,11.922v2.252a.714.714,0,1,0,1.429,0V69.034a20.777,20.777,0,0,0-4.439-12.8A19.357,19.357,0,0,1,49.429,44.3Zm13.951,8.047a19.182,19.182,0,0,1-3.237-10.686V32.714a.714.714,0,1,0-1.429,0v8.951a20.611,20.611,0,0,0,3.477,11.479l1.858,2.79a19.182,19.182,0,0,1,3.237,10.686v4.665a.714.714,0,0,0,1.429,0V66.621a20.611,20.611,0,0,0-3.477-11.479ZM76.418,56.23A19.357,19.357,0,0,1,72.286,44.3V38.429a.714.714,0,0,0-1.429,0V44.3A20.779,20.779,0,0,0,75.3,57.112a19.354,19.354,0,0,1,4.132,11.922v2.252a.714.714,0,0,0,1.429,0V69.034A20.776,20.776,0,0,0,76.418,56.23Z" transform="translate(-48 -32)" fill="#6f882c"/>
</svg>
