<svg xmlns="http://www.w3.org/2000/svg" width="55.38" height="40" viewBox="0 0 55.38 40">
  <path id="Tracé_7" data-name="Tracé 7" d="M52.41,99.493l-5.456,2.875a.71.71,0,0,1-.739.018.693.693,0,0,1-.37-.614v-3.49a.712.712,0,0,1,.309-.589l2.587-1.465a.77.77,0,0,0-.757-1.34l-2.623,1.487a2.256,2.256,0,0,0-1.055,1.906v3.49a2.215,2.215,0,0,0,1.166,1.962,2.313,2.313,0,0,0,1.115.291,2.121,2.121,0,0,0,1.136-.326l5.4-2.845a.769.769,0,0,0-.715-1.361ZM84.79,78.305,79.88,75.323a19.056,19.056,0,0,0-.685-4.254c-1.013-3.768-3.125-7.537-5.243-6.99-1.722.469-1.98,3.353-1.484,6.44-2.725-2.554-6.135-4.5-7.62-3.033a1.852,1.852,0,0,0-.517,1.361c0,1.622,1.568,4.229,4,6.645a20.707,20.707,0,0,0,3.047,2.486,5.814,5.814,0,0,0-.331.991c-5.33-3.678-14.151-9.026-20.338-9.026a12.615,12.615,0,0,0-9.732,4.486l-.012-.01a5.282,5.282,0,0,0-7.424,0,5.171,5.171,0,0,0,6.015,8.274L57.031,99.855a3.825,3.825,0,0,0,2.659,1.088H73.15A2.258,2.258,0,0,0,75.413,98.7a5.448,5.448,0,0,0-5.441-5.444H63.689V89.236a8.21,8.21,0,0,0-5.982-7.848l-3.96-1.121a.77.77,0,0,0-.421,1.481l3.96,1.121a6.664,6.664,0,0,1,4.864,6.367v4.785a.77.77,0,0,0,.769.769h7.052a3.909,3.909,0,0,1,3.9,3.906.709.709,0,0,1-.724.709H59.69a2.275,2.275,0,0,1-1.58-.646L40.22,81.188a.767.767,0,0,0-.958-.1,3.689,3.689,0,0,1-4.636-.388,3.64,3.64,0,0,1,0-5.193,3.741,3.741,0,0,1,5.258,0c.235.23.362.946,1,.973a.635.635,0,0,0,.643-.3,11.1,11.1,0,0,1,9.179-4.7c6.192,0,15.506,5.941,20.509,9.484a.769.769,0,0,0,1.214-.628,4.569,4.569,0,0,1,.06-.748,4.618,4.618,0,0,1,.556-1.528.767.767,0,0,0-.282-1.032A18.084,18.084,0,0,1,69.413,74.4c-2.326-2.311-3.542-4.54-3.542-5.548a.43.43,0,0,1,.06-.269c.364-.341,2.848.44,5.895,3.455.556.548,1.03,1.1,1.481,1.634a.769.769,0,0,0,1.319-.736l-.2-.605c-1.106-4.106-.544-6.636-.078-6.763.442-.051,2.253,1.782,3.362,5.908a17,17,0,0,1,.64,4.3.769.769,0,0,0,.369.651l5.225,3.171a4.464,4.464,0,0,1,1.9,3.635,4.646,4.646,0,0,1-4.525,4.641H71.654a.763.763,0,0,0-.282.054l-5.811,2.307a.769.769,0,1,0,.565,1.43L71.8,89.406h9.515a6.2,6.2,0,0,0,6.063-6.179A6.024,6.024,0,0,0,84.79,78.305Zm-5.1,2.639a1.538,1.538,0,1,0-1.538,1.538A1.538,1.538,0,0,0,79.688,80.945Z" transform="translate(-32 -64.026)" fill="#6f882c"/>
</svg>
