<svg xmlns="http://www.w3.org/2000/svg" width="40" height="40" viewBox="0 0 40 40">
  <path id="Tracé_11" data-name="Tracé 11" d="M34.374,21.8a.625.625,0,0,0-.625.625V34.375a4.38,4.38,0,0,1-4.375,4.375H5.625A4.38,4.38,0,0,1,1.25,34.375V10.624A4.38,4.38,0,0,1,5.625,6.249H17.519a.625.625,0,0,0,0-1.25H5.625A5.632,5.632,0,0,0,0,10.624V34.375A5.632,5.632,0,0,0,5.625,40H29.374A5.632,5.632,0,0,0,35,34.375V22.424A.625.625,0,0,0,34.374,21.8Zm4.8-17.454L35.655.824a2.816,2.816,0,0,0-3.981,0L30,2.5,11.818,20.681a.94.94,0,0,0-.257.479l-1.543,7.718A.938.938,0,0,0,10.934,30a.957.957,0,0,0,.187-.019l7.717-1.544a.939.939,0,0,0,.479-.256L35.884,11.616h0l3.292-3.292A2.815,2.815,0,0,0,39.176,4.345ZM18.5,27.23l-7.166,1.439L12.768,21.5,27.941,6.325l5.733,5.733ZM38.292,7.441l-3.734,3.733L28.825,5.441l3.733-3.733a1.566,1.566,0,0,1,2.213,0l3.521,3.521A1.566,1.566,0,0,1,38.292,7.441Z" fill="#6f882c"/>
</svg>
